<?xml version='1.0' encoding='iso-8859-1'?>
<svg version="1.1" xmlns="http://www.w3.org/2000/svg" viewBox="0 0 44 44" xmlns:xlink="http://www.w3.org/1999/xlink" enable-background="new 0 0 44 44">
  <g>
    <g>
      <g>
        <path fill-rule="evenodd" d="m9,17.001c-2.76,0-4.998,2.238-4.998,4.999 0,2.761 2.239,5.001 4.998,5.001 2.762,0 5.001-2.24 5.001-5.001-1.77636e-15-2.761-2.239-4.999-5.001-4.999zm0,8c-1.656,0-2.998-1.345-2.998-3.001 0-1.656 1.342-2.999 2.998-2.999 1.656,0 3.001,1.343 3.001,2.999 0,1.656-1.345,3.001-3.001,3.001zm26.001-12.001h-26.001c-4.97,0-9,4.03-9,9s4.03,9 9,9h26.001c4.971,0 8.999-4.03 8.999-9s-4.028-9-8.999-9zm0,16.001h-26.001c-3.865,0-6.998-3.135-6.998-7.001 0-3.866 3.133-6.999 6.998-6.999h26.001c3.866-1.77636e-15 6.999,3.133 6.999,6.999 0,3.866-3.133,7.001-6.999,7.001z"/>
      </g>
    </g>
  </g>
</svg>
